<?xml version="1.0" encoding="UTF-8"?> <svg xmlns="http://www.w3.org/2000/svg" id="Layer_2" data-name="Layer 2" version="1.1" viewBox="0 0 743.1 189.7"><defs><style>.cls-1{fill:#ededea;stroke-width:0}</style></defs><g id="LUX"><path d="M0 139.1V0h66l48.4 93.6h.4L162.4 0H237l-38 139.1h-17.9V52.4h-.4L137 139H93.9L48.8 52.4h-.4V139H0Z" class="cls-1"></path><path fill="#c7c7be" stroke-width="0" d="M219.2 139.1 257.2 0h13.2v101.6h85.1v37.5H219.1Zm232.7 3.3c-18.9 0-35.1-2.6-48.5-7.8-13.4-5.2-23.6-12.8-30.7-22.7-7.1-10-10.6-22.1-10.6-36.5V0h51.3v72.4c0 7.4 1.5 13.5 4.6 18.3 3 4.9 7.5 8.5 13.2 11 5.8 2.5 12.7 3.7 20.7 3.7s14.9-1.2 20.7-3.7c5.8-2.5 10.1-6.1 13.1-11s4.5-11 4.5-18.3V0h51.5v75.4c0 14.4-3.5 26.5-10.6 36.5s-17.3 17.6-30.8 22.7-29.6 7.8-48.4 7.8Zm97.5-3.3 67-72.7L550 0h52.2l42.7 43.5L689.3 0h53l-68 65.8 68.8 73.2h-53.4l-44.1-48.9-43.9 48.9h-52.3Z"></path></g><path id="Layer_3" d="M.8 185.2c1.5.9 3.7 1.7 5.9 1.7 3.4 0 5.4-1.8 5.4-4.4s-1.4-3.8-4.8-5.1c-4.2-1.5-6.8-3.6-6.8-7.3s3.3-7 8.3-7 4.5.6 5.7 1.3l-.9 2.7c-.8-.5-2.6-1.2-4.9-1.2-3.5 0-4.8 2.1-4.8 3.8s1.6 3.6 5.1 4.9c4.3 1.7 6.5 3.8 6.5 7.5s-2.9 7.4-9 7.4-5.2-.7-6.5-1.6l.8-2.8Zm48.1-18.8h-7.8v-2.8h19v2.8h-7.8v22.8H49v-22.8Zm38-2.5c1.7-.3 4.1-.5 6.3-.5 3.5 0 5.8.6 7.4 2.1 1.3 1.1 2 2.9 2 4.9 0 3.4-2.1 5.6-4.8 6.5 2 .8 3.2 2.6 3.8 5.3.8 3.6 1.4 6.1 2 7h-3.4c-.4-.7-1-2.9-1.7-6.1-.8-3.5-2.1-4.9-5.1-5h-3.1v11.1H87v-25.3Zm3.3 11.7h3.4c3.5 0 5.8-1.9 5.8-4.9s-2.4-4.8-5.9-4.8c-1.6 0-2.7.1-3.3.3v9.4Zm54.4 1.6h-10v9.2h11.1v2.8h-14.4v-25.6h13.9v2.8h-10.5v8.1h10v2.7Zm33.6 4-2.7 8.1h-3.4l8.7-25.6h4l8.8 25.6h-3.5l-2.7-8.1h-9.1Zm8.4-2.6-2.5-7.4c-.6-1.7-.9-3.2-1.3-4.7-.4 1.5-.8 3.1-1.3 4.6l-2.5 7.4h7.7Zm56.1-.6c-.2-3.6-.4-7.9-.4-11.1h-.1c-.9 3-1.9 6.2-3.2 9.7l-4.5 12.4H232l-4.1-12.2c-1.2-3.6-2.2-6.9-3-10 0 3.2-.3 7.5-.5 11.3l-.7 11h-3.2l1.8-25.6h4.2l4.4 12.4c1.1 3.2 1.9 6 2.6 8.6h.1c.6-2.6 1.6-5.4 2.7-8.6l4.6-12.4h4.2l1.6 25.6h-3.2l-.6-11.3Zm36.3-14.4v25.6h-3.3v-25.6h3.3Zm29.7 25.7v-25.6h3.6l8.2 13c1.9 3 3.4 5.7 4.6 8.3-.3-3.5-.4-6.6-.4-10.6v-10.7h3.1v25.6h-3.4l-8.1-13c-1.8-2.9-3.5-5.8-4.8-8.6h-.1c.2 3.3.3 6.4.3 10.6v11h-3.1Zm68.5-1.2c-1.5.5-4.4 1.4-7.9 1.4s-7.1-1-9.6-3.4c-2.2-2.1-3.6-5.6-3.6-9.6 0-7.6 5.3-13.2 13.9-13.2s5.3.6 6.4 1.2l-.8 2.7c-1.4-.6-3.1-1.1-5.7-1.1-6.2 0-10.3 3.9-10.3 10.3s3.9 10.4 9.9 10.4 3.6-.3 4.4-.7v-7.6h-5.2v-2.7h8.5v12.3Zm60.3 1.2v-25.6h3.6l8.2 13c1.9 3 3.4 5.7 4.6 8.3-.3-3.5-.4-6.6-.4-10.6v-10.7h3.1v25.6h-3.4l-8.1-13c-1.8-2.9-3.5-5.8-4.8-8.6h-.1c.2 3.3.3 6.4.3 10.6v11h-3.1Zm62.3-12.1h-10v9.2h11.1v2.8h-14.4v-25.6h13.9v2.8h-10.5v8.1h10v2.7Zm34.9-10.8h-7.8v-2.8h19v2.8h-7.8v22.8h-3.3v-22.8Zm43.7 22.9-6.5-25.6h3.5l3 13c.8 3.2 1.5 6.4 1.9 8.9.4-2.6 1.2-5.6 2.1-8.9l3.4-12.9h3.5l3.1 13c.7 3 1.4 6.1 1.8 8.8.5-2.8 1.3-5.7 2-8.9l3.4-12.9h3.4l-7.3 25.6h-3.5L589 176c-.8-3.3-1.3-5.8-1.7-8.4-.5 2.6-1 5.1-2 8.4l-3.7 13.4h-3.5Zm73.9-13.1c0 8.8-5.4 13.5-11.9 13.5s-11.5-5.2-11.5-13 5.1-13.5 11.9-13.5 11.5 5.4 11.5 13Zm-19.9.4c0 5.5 3 10.4 8.2 10.4s8.2-4.8 8.2-10.6-2.7-10.4-8.2-10.4-8.2 5.1-8.2 10.7Zm48.1-12.6c1.7-.3 4.1-.5 6.3-.5 3.5 0 5.8.6 7.4 2.1 1.3 1.1 2 2.9 2 4.9 0 3.4-2.1 5.6-4.8 6.5 2 .8 3.2 2.6 3.8 5.3.8 3.6 1.5 6.1 2 7h-3.4c-.4-.7-1-2.9-1.7-6.1-.8-3.5-2.1-4.9-5.1-5h-3.1v11.1h-3.3V164Zm3.3 11.6h3.4c3.5 0 5.8-1.9 5.8-4.9s-2.4-4.8-5.9-4.8c-1.6 0-2.7.1-3.3.3v9.4Zm41.2-12h3.3V176h.1c.7-1 1.4-1.9 2-2.7l7.8-9.6h4.1l-9.3 10.9 10 14.8h-3.9l-8.5-12.6-2.4 2.8v9.8h-3.3v-25.6Z" class="cls-1" data-name="Layer 3"></path></svg> 