<?xml version="1.0" encoding="UTF-8"?><svg id="uuid-7cc2c3db-f27c-46cb-9e07-8e4ea94e2330" xmlns="http://www.w3.org/2000/svg" viewBox="0 0 1261.27 308.68"><defs><style>.uuid-029ef2e9-d746-493e-a6a2-5c52e69fb53c{fill:#3a393b;}.uuid-dc300593-15e2-444f-a47e-abadc9a38d21{opacity:.9;}</style></defs><path class="uuid-029ef2e9-d746-493e-a6a2-5c52e69fb53c" d="M44.32,85.32v-2.52h26.1v2.52c-6.41,1.6-6.87,5.27-.92,25.41l21.98,75.32,35.03-103.25h3.21l36.4,103.03,21.75-75.1c4.35-14.88,2.98-23.81-5.04-25.41v-2.52h21.98v2.52c-5.95,2.06-8.24,5.27-13.97,25.41l-24.73,86.54h-8.47l-34.11-96.62-32.74,96.62h-8.47l-25.18-86.54c-5.95-20.15-8.24-23.35-12.82-25.41Z"/><path class="uuid-029ef2e9-d746-493e-a6a2-5c52e69fb53c" d="M208.48,142.55c0-35.49,25.87-61.36,60.44-61.36,26.33,0,43.5,16.26,44.64,39.84h-92.04c-.92,4.35-1.37,8.93-1.37,13.74,0,33.2,21.06,54.72,51.28,54.72,18.54,0,30.68-8.47,42.36-21.75l1.83,1.83c-12.82,16.03-30.45,29.99-52.66,29.99-25.18,0-54.49-18.54-54.49-57.01ZM300.75,118.28c-1.83-11.45-13.51-33.2-39.84-33.2-19.69,0-33.88,12.82-38.92,33.2h78.76Z"/><path class="uuid-029ef2e9-d746-493e-a6a2-5c52e69fb53c" d="M332.34,141.18c0-28.62,19.46-59.3,58.15-59.76,16.48-.23,29.99,6.41,38.46,13.05v-47.62c0-18.77-2.29-20.83-9.16-23.81v-2.06l19.46-8.47,1.6,1.37v154.31c0,21.06,2.75,24.96,9.16,26.56v2.52h-16.48c-2.98,0-4.58-1.6-4.58-4.58v-16.03c-14.65,14.42-29.08,22.89-43.73,22.89-27.7,0-52.89-21.98-52.89-58.38ZM390.95,190.86c13.97,0,26.33-6.64,38.01-17.63v-58.61c-2.29-13.74-21.98-29.53-42.81-29.53-23.35,0-42.36,16.48-42.36,47.62s18.32,58.15,47.16,58.15Z"/><path class="uuid-029ef2e9-d746-493e-a6a2-5c52e69fb53c" d="M517.55,189.49l-1.6-25.64,1.83-.46c9.16,21.52,25.41,32.51,46.48,32.51,14.42,0,26.33-7.55,26.33-23.12,0-18.55-20.83-23.12-36.17-28.39-19-6.41-35.49-11.45-35.49-32.74,0-18.77,17.17-30.45,38.69-30.45,16.94,0,29.53,3.89,35.94,6.64l.92,21.52-1.83.46c-6.87-16.94-21.98-25.87-37.78-25.87-16.71,0-27.47,7.55-27.47,21.06,0,16.48,18.09,22.9,33.2,27.7,16.48,5.27,38.69,10.3,38.69,32.51s-18.09,34.11-39.61,34.34c-20.15.23-35.72-5.95-42.13-10.07Z"/><path class="uuid-029ef2e9-d746-493e-a6a2-5c52e69fb53c" d="M617.14,140.26c0-34.57,27.47-59.07,58.84-59.07,28.39,0,58.61,18.32,58.61,59.3s-31.6,59.07-58.61,59.07c-28.39,0-58.84-18.54-58.84-59.3ZM681.7,195.21c26.56,0,41.67-19.92,41.67-45.56,0-29.99-21.75-64.56-52.43-64.56-27.02,0-41.9,19.92-41.9,46.48,0,31.37,21.98,63.65,52.66,63.65Z"/><path class="uuid-029ef2e9-d746-493e-a6a2-5c52e69fb53c" d="M751.99,142.55c0-33.66,28.16-61.36,62.96-61.36,19,0,36.17,5.49,36.17,11.68,0,3.43-5.27,9.62-13.05,9.62-5.04,0-16.03-6.18-35.49-17.86-22.44,4.58-38.92,22.44-38.92,50.14,0,33.2,21.06,54.72,51.28,54.72,18.54,0,30.68-8.47,42.36-21.75l1.83,1.83c-12.82,16.03-30.45,29.99-52.66,29.99-25.18,0-54.49-18.54-54.49-57.01Z"/><path class="uuid-029ef2e9-d746-493e-a6a2-5c52e69fb53c" d="M872.64,194.75c6.41-1.6,9.16-5.49,9.16-26.56v-52.66c0-18.77-2.29-20.83-9.16-23.81v-2.06l19.46-8.47,1.6,1.37v85.63c0,21.06,2.75,24.96,9.16,26.56v2.52h-30.22v-2.52ZM886.38,41.59c5.49,0,9.39,4.12,9.39,9.39s-4.12,9.39-9.39,9.39-9.39-4.12-9.39-9.39,4.12-9.39,9.39-9.39Z"/><path class="uuid-029ef2e9-d746-493e-a6a2-5c52e69fb53c" d="M921.41,142.55c0-35.49,25.87-61.36,60.44-61.36,26.33,0,43.5,16.26,44.64,39.84h-92.04c-.92,4.35-1.37,8.93-1.37,13.74,0,33.2,21.06,54.72,51.28,54.72,18.54,0,30.68-8.47,42.36-21.75l1.83,1.83c-12.82,16.03-30.45,29.99-52.66,29.99-25.18,0-54.49-18.54-54.49-57.01ZM1013.68,118.28c-1.83-11.45-13.51-33.2-39.84-33.2-19.69,0-33.88,12.82-38.92,33.2h78.76Z"/><path class="uuid-029ef2e9-d746-493e-a6a2-5c52e69fb53c" d="M1056.94,168.88v-83.34h-14.65v-2.75l24.04-25.87h2.52v25.87h34.34l-1.37,2.75h-32.97v82.88c0,17.17,7.56,22.9,17.17,22.9,8.01,0,16.26-3.89,23.81-12.59l1.83,1.83c-7.1,8.47-19.23,19-32.05,19s-22.67-7.78-22.67-30.68Z"/><path class="uuid-029ef2e9-d746-493e-a6a2-5c52e69fb53c" d="M1102.5,235.96c0-4.12,5.27-10.3,10.99-10.3s17.63,4.58,26.56,6.18c10.53-7.55,19.46-21.52,25.87-35.03l-36.17-87.23c-8.24-19.46-13.05-22.67-17.63-24.27v-2.52h28.39v2.52c-6.41,1.6-6.18,4.81,2.06,24.27l29.99,71.89,31.14-71.89c6.18-14.42,6.41-22.67-1.6-24.27v-2.52h24.5v2.52c-5.72,1.6-11.45,4.81-19.69,24.27l-36.17,83.11c-21.75,50.14-46.02,48.77-54.03,48.77s-14.19-2.75-14.19-5.49Z"/><path class="uuid-029ef2e9-d746-493e-a6a2-5c52e69fb53c" d="M1240.9,85.75c-1.67,0-3.23-.41-4.69-1.23-1.46-.82-2.62-1.97-3.5-3.46-.88-1.49-1.31-3.09-1.31-4.82s.42-3.28,1.27-4.76c.84-1.48,2.01-2.64,3.5-3.48,1.49-.84,3.07-1.26,4.74-1.26s3.26.42,4.75,1.26c1.49.84,2.65,2,3.5,3.48.85,1.48,1.27,3.07,1.27,4.76s-.44,3.33-1.32,4.82c-.88,1.49-2.05,2.64-3.51,3.46-1.46.82-3.03,1.23-4.69,1.23ZM1240.9,84.31c1.41,0,2.74-.35,3.98-1.04,1.24-.69,2.23-1.66,2.98-2.92.75-1.25,1.12-2.62,1.11-4.1,0-1.44-.36-2.78-1.08-4.04-.72-1.26-1.71-2.25-2.97-2.97-1.26-.72-2.6-1.08-4.02-1.08s-2.77.36-4.03,1.08c-1.26.72-2.25,1.71-2.97,2.97-.71,1.26-1.07,2.61-1.07,4.04s.37,2.85,1.11,4.1c.74,1.26,1.73,2.23,2.97,2.92,1.23.69,2.56,1.04,3.99,1.04ZM1239.09,82.16h-1.84v-11.74h3.74c.91,0,1.6.13,2.07.4.47.27.84.64,1.11,1.13.27.49.4,1.03.4,1.61,0,.67-.19,1.31-.56,1.92-.38.61-.96,1.08-1.74,1.41.41.26.85.82,1.32,1.67l1.93,3.6h-2.1l-1.62-3.06-.37-.72c-.44-.77-.76-1.16-.95-1.16h-1.38v4.94ZM1239.09,75.81h1.29c.86,0,1.45-.22,1.78-.67.33-.44.49-.93.49-1.47,0-.33-.06-.63-.19-.9-.13-.27-.32-.49-.58-.67-.26-.18-.71-.27-1.36-.27h-1.42v3.98Z"/><g class="uuid-dc300593-15e2-444f-a47e-abadc9a38d21"><path class="uuid-029ef2e9-d746-493e-a6a2-5c52e69fb53c" d="M306.97,262.91h-14.72l-3.31,7.88h-6.34l13.59-31.71h7.2l13.5,31.71h-6.66l-3.26-7.88ZM304.93,258.02l-5.3-12.73-5.35,12.73h10.65Z"/><path class="uuid-029ef2e9-d746-493e-a6a2-5c52e69fb53c" d="M359.2,239.08v18.21c0,7.7-5.39,13.95-15.09,13.95s-15.09-6.25-15.09-13.95v-18.21h6.12v17.76c0,5.35,2.81,9.51,8.97,9.51s8.97-4.17,8.97-9.51v-17.76h6.12Z"/><path class="uuid-029ef2e9-d746-493e-a6a2-5c52e69fb53c" d="M401.6,261.42c0,6.03-5.39,9.83-13.73,9.83-7.75,0-13.14-3.31-13.82-9.6h5.93c.54,3.67,4.12,4.71,7.79,4.71,3.94,0,7.16-1.27,7.16-3.94,0-6.66-19.98-2.58-19.98-14.32,0-6.34,6.07-9.47,13.05-9.47s12.23,3.4,13.14,9.15h-5.93c-.82-2.85-3.44-4.44-7.16-4.44s-6.66,1.59-6.66,4.08c0,6.7,20.21,2.36,20.21,14Z"/><path class="uuid-029ef2e9-d746-493e-a6a2-5c52e69fb53c" d="M443.42,243.97h-12.37v26.82h-6.12v-26.82h-12.37v-4.89h30.85v4.89Z"/><path class="uuid-029ef2e9-d746-493e-a6a2-5c52e69fb53c" d="M462.8,239.08v31.71h-6.12v-31.71h6.12Z"/><path class="uuid-029ef2e9-d746-493e-a6a2-5c52e69fb53c" d="M511.41,239.08v31.71h-4.67l-21.52-21.61v21.61h-6.12v-31.71h4.67l21.52,21.75v-21.75h6.12Z"/><path class="uuid-029ef2e9-d746-493e-a6a2-5c52e69fb53c" d="M573.39,257.61h-11.14v10.83h-4.48v-10.83h-10.78v-4.48h10.78v-11.1h4.48v11.1h11.14v4.48Z"/><path class="uuid-029ef2e9-d746-493e-a6a2-5c52e69fb53c" d="M641.2,239.08v31.71h-6.12v-14h-19.98v14h-6.12v-31.71h6.12v12.82h19.98v-12.82h6.12Z"/><path class="uuid-029ef2e9-d746-493e-a6a2-5c52e69fb53c" d="M663.63,239.08v31.71h-6.12v-31.71h6.12Z"/><path class="uuid-029ef2e9-d746-493e-a6a2-5c52e69fb53c" d="M705.4,265.9v4.89h-25.46v-31.71h6.12v26.82h19.34Z"/><path class="uuid-029ef2e9-d746-493e-a6a2-5c52e69fb53c" d="M744.13,265.9v4.89h-25.46v-31.71h6.12v26.82h19.34Z"/><path class="uuid-029ef2e9-d746-493e-a6a2-5c52e69fb53c" d="M802.48,260.56h6.03c-1.72,7.38-8.2,10.69-14.9,10.69-10.1,0-17.4-7.29-17.4-16.31s7.29-16.31,17.4-16.31c6.7,0,13.18,3.31,14.9,10.69h-6.03c-1.31-4.17-5.39-5.8-8.88-5.8-6.21,0-10.83,4.89-10.83,11.42s4.62,11.42,10.83,11.42c3.49,0,7.57-1.63,8.88-5.8Z"/><path class="uuid-029ef2e9-d746-493e-a6a2-5c52e69fb53c" d="M856.53,254.94c0,9.02-7.29,16.31-17.4,16.31s-17.4-7.29-17.4-16.31,7.29-16.31,17.4-16.31,17.4,7.29,17.4,16.31ZM849.96,254.94c0-6.52-4.62-11.42-10.83-11.42s-10.83,4.89-10.83,11.42,4.62,11.42,10.83,11.42,10.83-4.89,10.83-11.42Z"/><path class="uuid-029ef2e9-d746-493e-a6a2-5c52e69fb53c" d="M901.33,239.08v18.21c0,7.7-5.39,13.95-15.09,13.95s-15.09-6.25-15.09-13.95v-18.21h6.12v17.76c0,5.35,2.81,9.51,8.97,9.51s8.97-4.17,8.97-9.51v-17.76h6.12Z"/><path class="uuid-029ef2e9-d746-493e-a6a2-5c52e69fb53c" d="M949.67,239.08v31.71h-4.67l-21.52-21.61v21.61h-6.12v-31.71h4.67l21.52,21.75v-21.75h6.12Z"/><path class="uuid-029ef2e9-d746-493e-a6a2-5c52e69fb53c" d="M993.56,243.97h-12.37v26.82h-6.12v-26.82h-12.37v-4.89h30.85v4.89Z"/><path class="uuid-029ef2e9-d746-493e-a6a2-5c52e69fb53c" d="M1035.65,270.79h-6.98l-5.62-8.88c-1.68-2.63-2.99-3.35-6.71-3.35h-3.4v12.23h-6.12v-31.71h13.73c7.52,0,12.59,2.85,12.59,9.56,0,4.49-2.81,7.11-7.11,8.34,1.22.82,2.22,1.99,3.17,3.58l6.43,10.24ZM1019.3,253.67c5.66,0,7.7-1.49,7.7-4.85s-2.04-4.85-7.7-4.85h-6.34v9.69h6.34Z"/><path class="uuid-029ef2e9-d746-493e-a6a2-5c52e69fb53c" d="M1065.32,258.34v12.46h-6.12v-12.46l-13.55-19.25h7.11l9.74,14.13,9.38-14.13h6.7l-13.27,19.25Z"/></g></svg>