<svg xmlns="http://www.w3.org/2000/svg" width="994" height="561" viewBox="0 0 994 561" fill="none"><path d="M137.974 0C144.783 0.848834 151.592 1.64115 158.401 2.54657C185.587 6.16826 210.625 16.8635 229.903 45.4032C245.202 68.0388 252.327 96.0692 255.441 125.948C259.253 162.542 259.752 199.287 252.644 235.391C240.974 294.583 214.92 333.064 169.688 343.004C164.711 344.098 159.616 344.495 154.572 344.495C106.36 344.608 58.1319 344.57 9.92013 344.551C7.80588 344.551 5.69161 344.268 2.0957 344.004V0C47.3941 0 92.6926 0 137.991 0H137.974ZM62.3105 283.624C65.8231 283.624 68.6865 283.624 71.5499 283.624C92.5927 283.624 105.345 283.793 126.388 283.529C133.546 283.435 139.939 285.397 146.731 282.737C164.527 275.777 181.025 260.441 189.166 224.432C195.492 196.477 196.191 171.634 194.027 142.963C193.678 138.247 192.845 133.55 192.029 128.928C183.556 81.507 160.415 55.5704 125.072 54.8536C99.5014 54.3254 92.7258 54.7216 67.155 54.7782C65.64 54.7782 64.1251 55.2875 62.2938 55.6081V283.643L62.3105 283.624Z" fill="#EC2024"></path><path d="M809.974 0C831.083 0 861.165 0 882.275 0C919.599 114.253 951.146 228.525 988.853 343.929H918.9C910.276 316.502 907.546 299.752 898.706 271.646C858.685 271.646 829.518 270.59 789.314 270.59C780.74 298.28 775.463 315.861 766.773 343.91H698.268C700.632 336.402 702.663 329.687 704.843 323.066L809.974 0ZM806.211 211.53H882.275C869.023 160.373 857.753 109.273 845.3 62.927L806.228 211.53H806.211Z" fill="#EC2024"></path><path d="M549.715 0V59.4751H400.551V135.078H533.217V197.835H400.185V343.703H335.975C335.825 339.779 335.975 335.874 335.975 331.97C335.958 225.318 335.925 118.648 335.975 11.9969C335.975 7.99799 335.675 3.99897 335.975 0.0188814C403.049 0.0188814 482.641 0.0188814 549.715 0.0188814V0Z" fill="#EC2024"></path><path d="M761.506 0V59.4751H612.342V135.078H745.008V197.835H611.976V343.703H547.766C547.616 339.779 547.766 335.874 547.766 331.97C547.749 225.318 547.716 118.648 547.766 11.9969C547.766 7.99799 547.466 3.99897 547.766 0.0188814C614.84 0.0188814 694.432 0.0188814 761.506 0.0188814V0Z" fill="#EC2024"></path><path d="M318.377 0C318.31 66.9259 318.21 133.833 318.177 200.759C318.143 244.144 318.177 287.547 318.177 330.932V343.703H257.629C257.463 339.741 257.146 335.818 257.146 331.913C257.113 225.262 257.113 118.629 257.163 11.9781C257.163 7.97911 257.829 3.99895 258.178 0C278.256 0 298.316 0 318.393 0H318.377Z" fill="#EC2024"></path><path d="M0 383.288H16.4144C21.2422 383.288 25.1877 384.778 28.2508 387.777C31.2973 390.777 32.8289 394.625 32.8289 399.359V474.301C32.8289 479.035 31.2973 482.883 28.2508 485.883C25.1877 488.882 21.2589 490.372 16.4144 490.372H0V383.307V383.288ZM16.3978 480.714C18.0459 480.714 19.3611 480.224 20.3599 479.243C21.3588 478.262 21.8582 476.961 21.8582 475.357V398.265C21.8582 396.662 21.3588 395.36 20.3599 394.379C19.3611 393.399 18.0293 392.908 16.3978 392.908H10.9208V480.695H16.3978V480.714Z" fill="black"></path><path d="M43.0801 383.288H64.9549V392.927H54.0175V436.821H70.4319V446.46H54.0175V480.714H64.9549V490.353H43.0801V383.288Z" fill="black"></path><path d="M529.012 383.288H550.887V392.927H539.949V436.821H556.364V446.46H539.949V480.714H550.887V490.353H529.012V383.288Z" fill="black"></path><path d="M75.0117 487.194C71.9485 484.214 70.4336 480.347 70.4336 475.613V455.807H81.371V476.688C81.371 478.291 81.8038 479.593 82.6695 480.573C83.5352 481.554 84.7837 482.045 86.4318 482.045C90.344 482.045 92.3084 478.706 92.3084 472.01C92.3084 466.577 91.4261 461.371 89.6448 456.41C87.8635 451.449 85.1999 445.451 81.6374 438.415C77.8917 430.832 75.0949 424.4 73.2304 419.137C71.3659 413.875 70.4336 408.216 70.4336 402.142C70.4336 395.54 71.9152 390.523 74.8785 387.09C77.8417 383.657 81.8205 381.94 86.848 381.94C91.8756 381.94 95.6213 383.43 98.6844 386.43C101.731 389.429 103.262 393.277 103.262 398.011V415.139H92.3251V396.936C92.3251 395.333 91.8922 394.031 91.0266 393.05C90.1609 392.069 88.9123 391.579 87.2642 391.579C83.3354 391.579 81.3877 394.918 81.3877 401.614C81.3877 407.065 82.27 412.253 84.0513 417.214C85.8325 422.174 88.5461 428.211 92.1919 435.341C95.9209 442.754 98.7011 449.016 100.532 454.147C102.347 459.277 103.262 464.785 103.262 470.671C103.262 477.631 101.781 482.875 98.8176 486.402C95.8543 489.929 91.8589 491.684 86.848 491.684C81.8371 491.684 78.0748 490.193 75.0117 487.194Z" fill="black"></path><path d="M111.406 383.288H122.344V490.353H111.406V383.288Z" fill="black"></path><path d="M135.795 488.005C133.697 485.553 132.648 482.309 132.648 478.31V398.011C132.648 393.277 134.18 389.429 137.227 386.43C140.273 383.449 144.218 381.94 149.063 381.94C153.907 381.94 157.836 383.43 160.899 386.43C163.946 389.429 165.477 393.277 165.477 398.011V418.081H154.54V396.936C154.54 395.333 154.04 394.031 153.042 393.05C152.043 392.069 150.711 391.579 149.08 391.579C147.448 391.579 146.116 392.069 145.117 393.05C144.119 394.031 143.619 395.333 143.619 396.936V476.971C143.619 478.48 144.119 479.762 145.117 480.781C146.116 481.8 147.448 482.328 149.08 482.328C150.711 482.328 152.043 481.818 153.042 480.781C154.04 479.762 154.54 478.48 154.54 476.971V445.112H140.256V435.473H165.477V490.344H157.27L155.905 483.648H155.089C154.357 486.138 153.058 488.119 151.194 489.533C149.329 490.967 147.015 491.684 144.285 491.684C140.722 491.684 137.909 490.458 135.811 488.005H135.795Z" fill="black"></path><path d="M175.721 383.288H188.023L199.926 451.533H201.025V383.288H211.28V490.353H198.977L187.074 422.108H185.976V490.353H175.721V383.288Z" fill="black"></path><path d="M244.027 383.288H254.965V490.353H244.027V383.288Z" fill="black"></path><path d="M265.973 383.288H278.275L290.178 451.533H291.277V383.288H301.532V490.353H289.229L277.326 422.108H276.228V490.353H265.973V383.288Z" fill="black"></path><path d="M312.449 383.288H328.864C333.691 383.288 337.637 384.778 340.7 387.777C343.747 390.777 345.278 394.625 345.278 399.359V474.301C345.278 479.035 343.747 482.883 340.7 485.883C337.637 488.882 333.708 490.372 328.864 490.372H312.449V383.307V383.288ZM328.864 480.714C330.512 480.714 331.827 480.224 332.826 479.243C333.825 478.262 334.324 476.961 334.324 475.357V398.265C334.324 396.662 333.825 395.36 332.826 394.379C331.827 393.399 330.495 392.908 328.864 392.908H323.387V480.695H328.864V480.714Z" fill="black"></path><path d="M359.43 487.203C356.366 484.223 354.852 480.356 354.852 475.621V383.27H365.789V476.678C365.789 478.281 366.288 479.583 367.287 480.564C368.286 481.544 369.618 482.035 371.249 482.035C372.881 482.035 374.213 481.544 375.211 480.564C376.21 479.583 376.71 478.281 376.71 476.678V383.27H387.647V475.621C387.647 480.356 386.116 484.204 383.069 487.203C380.006 490.202 376.077 491.693 371.233 491.693C366.388 491.693 362.459 490.202 359.396 487.203H359.43Z" fill="black"></path><path d="M399.728 487.194C396.665 484.214 395.15 480.347 395.15 475.613V455.807H406.088V476.688C406.088 478.291 406.521 479.593 407.386 480.573C408.252 481.554 409.501 482.045 411.149 482.045C415.061 482.045 417.025 478.706 417.025 472.01C417.025 466.577 416.143 461.371 414.362 456.41C412.58 451.449 409.917 445.451 406.354 438.415C402.608 430.832 399.812 424.4 397.947 419.137C396.083 413.875 395.15 408.216 395.15 402.142C395.15 395.54 396.632 390.523 399.595 387.09C402.559 383.657 406.537 381.94 411.565 381.94C416.592 381.94 420.338 383.43 423.401 386.43C426.448 389.429 427.979 393.277 427.979 398.011V415.139H417.042V396.936C417.042 395.333 416.609 394.031 415.743 393.05C414.878 392.069 413.629 391.579 411.981 391.579C408.052 391.579 406.104 394.918 406.104 401.614C406.104 407.065 406.987 412.253 408.768 417.214C410.549 422.174 413.263 428.211 416.909 435.341C420.638 442.754 423.418 449.016 425.249 454.147C427.064 459.277 427.979 464.785 427.979 470.671C427.979 477.631 426.498 482.875 423.534 486.402C420.571 489.929 416.576 491.684 411.565 491.684C406.554 491.684 402.792 490.193 399.728 487.194Z" fill="black"></path><path d="M441.678 392.927H432.105V383.288H466.299V392.927H452.632V490.353H441.694V392.927H441.678Z" fill="black"></path><path d="M466.248 383.288H482.662C487.49 383.288 491.436 384.778 494.499 387.778C497.545 390.777 499.077 394.625 499.077 399.359V421.316C499.077 425.069 498.095 428.295 496.13 431.011C494.166 433.727 491.502 435.576 488.123 436.557V437.085C491.502 438.066 494.166 439.914 496.13 442.631C498.095 445.347 499.077 448.591 499.077 452.326V490.334H488.14V446.969C488.14 445.366 487.64 444.064 486.641 443.083C485.642 442.102 484.311 441.612 482.679 441.612H477.202V490.334H466.265V383.27L466.248 383.288ZM482.662 432.011C484.311 432.011 485.626 431.52 486.625 430.54C487.623 429.559 488.123 428.257 488.123 426.654V398.284C488.123 396.681 487.623 395.379 486.625 394.398C485.626 393.418 484.294 392.927 482.662 392.927H477.185V432.011H482.662Z" fill="black"></path><path d="M508.662 383.288H519.599V490.353H508.662V383.288Z" fill="black"></path><path d="M562.471 487.194C559.408 484.214 557.893 480.347 557.893 475.613V455.807H568.83V476.688C568.83 478.291 569.263 479.593 570.129 480.573C570.994 481.554 572.243 482.045 573.891 482.045C577.803 482.045 579.767 478.706 579.767 472.01C579.767 466.577 578.885 461.371 577.104 456.41C575.323 451.449 572.659 445.451 569.096 438.415C565.351 430.832 562.554 424.4 560.689 419.137C558.825 413.875 557.893 408.216 557.893 402.142C557.893 395.54 559.374 390.523 562.337 387.09C565.301 383.657 569.296 381.94 574.307 381.94C579.318 381.94 583.08 383.43 586.143 386.43C589.19 389.429 590.721 393.277 590.721 398.011V415.139H579.784V396.936C579.784 395.333 579.351 394.031 578.486 393.05C577.62 392.069 576.371 391.579 574.723 391.579C570.794 391.579 568.847 394.918 568.847 401.614C568.847 407.065 569.729 412.253 571.51 417.214C573.292 422.174 576.005 428.211 579.651 435.341C583.38 442.754 586.16 449.016 587.991 454.147C589.806 459.277 590.721 464.785 590.721 470.671C590.721 477.631 589.24 482.875 586.277 486.402C583.313 489.929 579.318 491.684 574.307 491.684C569.296 491.684 565.534 490.193 562.471 487.194Z" fill="black"></path><path d="M620.787 383.288H642.662V392.927H631.725V436.821H649.504V446.46H631.725V490.353H620.787V383.288Z" fill="black"></path><path d="M654.096 487.194C651.033 484.214 649.518 480.347 649.518 475.612V397.992C649.518 393.257 651.049 389.409 654.096 386.41C657.142 383.43 661.088 381.921 665.932 381.921C670.776 381.921 674.705 383.411 677.768 386.41C680.815 389.409 682.346 393.257 682.346 397.992V475.612C682.346 480.347 680.815 484.195 677.768 487.194C674.705 490.193 670.776 491.683 665.932 491.683C661.088 491.683 657.159 490.193 654.096 487.194ZM661.953 480.573C662.952 481.554 664.284 482.044 665.915 482.044C667.547 482.044 668.879 481.554 669.877 480.573C670.876 479.592 671.376 478.291 671.376 476.687V396.917C671.376 395.313 670.876 394.012 669.877 393.031C668.879 392.05 667.547 391.56 665.915 391.56C664.284 391.56 662.952 392.05 661.953 393.031C660.954 394.012 660.455 395.313 660.455 396.917V476.687C660.455 478.291 660.954 479.592 661.953 480.573Z" fill="black"></path><path d="M696.459 487.203C693.396 484.223 691.881 480.356 691.881 475.621V383.27H702.818V476.678C702.818 478.281 703.318 479.583 704.317 480.564C705.315 481.544 706.647 482.035 708.279 482.035C709.91 482.035 711.242 481.544 712.241 480.564C713.24 479.583 713.739 478.281 713.739 476.678V383.27H724.676V475.621C724.676 480.356 723.145 484.204 720.098 487.203C717.035 490.202 713.106 491.693 708.262 491.693C703.418 491.693 699.489 490.202 696.426 487.203H696.459Z" fill="black"></path><path d="M734.965 383.288H747.267L759.17 451.533H760.269V383.288H770.524V490.353H758.221L746.318 422.108H745.22V490.353H734.965V383.288Z" fill="black"></path><path d="M781.457 383.288H797.871C802.699 383.288 806.645 384.778 809.708 387.777C812.754 390.777 814.286 394.625 814.286 399.359V474.301C814.286 479.035 812.754 482.883 809.708 485.883C806.645 488.882 802.716 490.372 797.871 490.372H781.457V383.307V383.288ZM797.871 480.714C799.52 480.714 800.835 480.224 801.834 479.243C802.832 478.262 803.332 476.961 803.332 475.357V398.265C803.332 396.662 802.832 395.36 801.834 394.379C800.835 393.399 799.503 392.908 797.871 392.908H792.394V480.695H797.871V480.714Z" fill="black"></path><path d="M830.947 383.288H846.263L856.784 490.353H845.847L843.799 461.719H833.411L831.363 490.353H820.426L830.947 383.288ZM843.133 452.081L839.038 392.927H838.222L834.127 452.081H843.15H843.133Z" fill="black"></path><path d="M866.397 392.927H856.824V383.288H896.479V392.927H877.334V490.353H866.397V392.927Z" fill="black"></path><path d="M891 383.288H901.937V490.353H891V383.288Z" fill="black"></path><path d="M916.775 487.194C913.712 484.214 912.197 480.347 912.197 475.612V397.992C912.197 393.257 913.729 389.409 916.775 386.41C919.822 383.43 923.767 381.921 928.612 381.921C933.456 381.921 937.385 383.411 940.448 386.41C943.495 389.409 945.026 393.257 945.026 397.992V475.612C945.026 480.347 943.495 484.195 940.448 487.194C937.385 490.193 933.456 491.683 928.612 491.683C923.767 491.683 919.838 490.193 916.775 487.194ZM924.633 480.573C925.632 481.554 926.964 482.044 928.595 482.044C930.226 482.044 931.558 481.554 932.557 480.573C933.556 479.592 934.055 478.291 934.055 476.687V396.917C934.055 395.313 933.556 394.012 932.557 393.031C931.558 392.05 930.226 391.56 928.595 391.56C926.964 391.56 925.632 392.05 924.633 393.031C923.634 394.012 923.135 395.313 923.135 396.917V476.687C923.135 478.291 923.634 479.592 924.633 480.573Z" fill="black"></path><path d="M955.297 383.288H967.599L979.502 451.533H980.601V383.288H990.856V490.353H978.553L966.65 422.108H965.552V490.353H955.297V383.288Z" fill="black"></path><path d="M4.80521 559.2C3.62324 558.502 2.70763 557.502 2.05838 556.238C1.39248 554.975 1.07617 553.522 1.07617 551.9V536.15C1.07617 534.527 1.40913 533.094 2.05838 531.811C2.70763 530.547 3.63988 529.548 4.80521 528.85C5.98718 528.152 7.31899 527.793 8.81727 527.793C10.3155 527.793 11.6141 528.133 12.7627 528.793C13.9114 529.453 14.8104 530.396 15.4596 531.585C16.1089 532.773 16.4252 534.131 16.4252 535.64V541.488H11.8971V535.263C11.8971 534.433 11.6141 533.735 11.0314 533.207C10.4487 532.679 9.71623 532.396 8.81727 532.396C7.86836 532.396 7.10257 532.717 6.50326 533.358C5.90395 533.999 5.6043 534.81 5.6043 535.81V552.277C5.6043 553.277 5.90395 554.088 6.50326 554.729C7.10257 555.371 7.86836 555.691 8.81727 555.691C9.76617 555.691 10.4487 555.427 11.0314 554.88C11.6141 554.352 11.8971 553.654 11.8971 552.824V546.6H16.4252V552.447C16.4252 553.956 16.1089 555.314 15.4596 556.503C14.8104 557.691 13.9114 558.615 12.7627 559.294C11.6141 559.954 10.2989 560.294 8.81727 560.294C7.33564 560.294 5.98718 559.936 4.80521 559.238V559.2Z" fill="black"></path><path d="M28.332 528.322H32.8269V541.3H38.5037V528.322H42.9985V559.672H38.5037V545.921H32.8269V559.672H28.332V528.322Z" fill="black"></path><path d="M55.3789 528.322H59.8737V559.672H55.3789V528.322Z" fill="black"></path><path d="M75.5064 559.2C74.3244 558.502 73.4088 557.502 72.7595 556.238C72.0936 554.975 71.7773 553.522 71.7773 551.9V536.15C71.7773 534.527 72.1103 533.094 72.7595 531.811C73.4088 530.547 74.3411 529.548 75.5064 528.85C76.6884 528.152 78.0201 527.793 79.5184 527.793C81.0167 527.793 82.3152 528.133 83.4639 528.793C84.6126 529.453 85.5115 530.396 86.1608 531.585C86.81 532.773 87.1263 534.131 87.1263 535.64V541.488H82.5982V535.263C82.5982 534.433 82.3152 533.735 81.7325 533.207C81.1499 532.679 80.4174 532.396 79.5184 532.396C78.5695 532.396 77.8037 532.717 77.2044 533.358C76.6051 533.999 76.3055 534.81 76.3055 535.81V552.277C76.3055 553.277 76.6051 554.088 77.2044 554.729C77.8037 555.371 78.5695 555.691 79.5184 555.691C80.4673 555.691 81.1499 555.427 81.7325 554.88C82.3152 554.352 82.5982 553.654 82.5982 552.824V546.6H87.1263V552.447C87.1263 553.956 86.81 555.314 86.1608 556.503C85.5115 557.691 84.6126 558.615 83.4639 559.294C82.3152 559.954 81.0001 560.294 79.5184 560.294C78.0368 560.294 76.6884 559.936 75.5064 559.238V559.2Z" fill="black"></path><path d="M102.066 528.322H108.775L113.586 559.672H108.991L108.026 552.108H102.865L101.866 559.672H97.2715L102.083 528.322H102.066ZM107.393 547.619L105.529 532.963H105.329L103.464 547.619H107.41H107.393Z" fill="black"></path><path d="M126.751 559.197C125.836 558.537 125.103 557.631 124.587 556.462C124.071 555.292 123.805 553.953 123.805 552.463V536.166C123.805 534.543 124.138 533.11 124.787 531.827C125.436 530.563 126.352 529.564 127.517 528.866C128.682 528.168 130.014 527.809 131.512 527.809C133.011 527.809 134.293 528.149 135.441 528.809C136.59 529.469 137.472 530.412 138.105 531.601C138.737 532.789 139.054 534.147 139.054 535.656V539.146H134.526V535.26C134.526 534.43 134.243 533.732 133.693 533.204C133.144 532.676 132.411 532.393 131.512 532.393C130.614 532.393 129.831 532.714 129.232 533.355C128.632 533.996 128.333 534.808 128.333 535.807V552.274C128.333 553.274 128.632 554.085 129.232 554.745C129.831 555.406 130.597 555.726 131.546 555.726C132.328 555.726 132.994 555.5 133.527 555.047C134.076 554.594 134.392 554.01 134.476 553.312L134.509 548.294H131.463V543.937H139.037V559.725H135.158L134.842 557.065H134.592C134.126 558.065 133.494 558.839 132.678 559.386C131.862 559.933 130.913 560.216 129.864 560.216C128.682 560.216 127.634 559.895 126.718 559.235L126.751 559.197Z" fill="black"></path><path d="M154.338 559.2C153.156 558.502 152.241 557.502 151.592 556.238C150.926 554.975 150.609 553.522 150.609 551.9V536.15C150.609 534.527 150.942 533.094 151.592 531.811C152.241 530.547 153.173 529.548 154.338 528.85C155.52 528.152 156.852 527.793 158.35 527.793C159.849 527.793 161.181 528.152 162.346 528.85C163.511 529.548 164.427 530.547 165.076 531.811C165.725 533.075 166.058 534.527 166.058 536.15V551.9C166.058 553.522 165.725 554.956 165.076 556.238C164.41 557.502 163.511 558.483 162.346 559.2C161.181 559.898 159.849 560.256 158.35 560.256C156.852 560.256 155.52 559.898 154.338 559.2ZM156.036 554.711C156.636 555.352 157.402 555.673 158.35 555.673C159.299 555.673 160.032 555.352 160.631 554.711C161.23 554.069 161.53 553.258 161.53 552.258V535.791C161.53 534.792 161.23 533.98 160.631 533.339C160.032 532.698 159.266 532.377 158.35 532.377C157.435 532.377 156.636 532.698 156.036 533.339C155.437 533.98 155.137 534.792 155.137 535.791V552.258C155.137 553.258 155.437 554.069 156.036 554.711Z" fill="black"></path><path d="M228.459 528.322H236.034C237.465 528.322 238.747 528.662 239.879 529.36C241.011 530.058 241.894 531.02 242.509 532.265C243.125 533.51 243.442 534.924 243.442 536.509V551.486C243.442 553.07 243.125 554.504 242.509 555.73C241.894 556.975 241.011 557.937 239.879 558.635C238.747 559.333 237.465 559.672 236.034 559.672H228.459V528.322ZM236.034 555.089C236.883 555.089 237.582 554.787 238.131 554.183C238.681 553.58 238.947 552.806 238.947 551.825V536.15C238.947 535.188 238.681 534.396 238.131 533.793C237.582 533.189 236.883 532.887 236.034 532.887H232.954V555.07H236.034V555.089Z" fill="black"></path><path d="M258.384 528.322H265.093L269.904 559.672H265.31L264.344 552.108H259.183L258.185 559.672H253.59L258.401 528.322H258.384ZM263.712 547.619L261.847 532.963H261.647L259.783 547.619H263.728H263.712Z" fill="black"></path><path d="M280.987 528.322H285.482V555.089H292.74V559.672H280.971V528.322H280.987Z" fill="black"></path><path d="M303.812 528.322H308.306V555.089H315.565V559.672H303.795V528.322H303.812Z" fill="black"></path><path d="M330.125 528.322H336.834L341.645 559.672H337.05L336.084 552.108H330.924L329.925 559.672H325.33L330.141 528.322H330.125ZM335.452 547.619L333.587 532.963H333.388L331.523 547.619H335.468H335.452Z" fill="black"></path><path d="M355.15 559.328C354.035 558.706 353.186 557.857 352.553 556.763C351.921 555.669 351.621 554.405 351.621 552.99V549.501H356.116V553.386C356.116 554.047 356.366 554.594 356.882 555.028C357.398 555.461 358.047 555.688 358.846 555.688C359.645 555.688 360.344 555.442 360.877 554.971C361.393 554.48 361.66 553.783 361.66 552.839C361.66 551.67 361.31 550.557 360.627 549.52C359.928 548.482 358.863 547.199 357.414 545.653C356.199 544.37 355.217 543.257 354.468 542.295C353.719 541.333 353.103 540.258 352.57 539.013C352.037 537.787 351.771 536.448 351.771 535.014C351.771 532.769 352.42 530.996 353.719 529.695C355.017 528.393 356.715 527.752 358.813 527.752C360.228 527.752 361.46 528.054 362.525 528.676C363.591 529.299 364.423 530.147 365.022 531.26C365.622 532.373 365.905 533.637 365.905 535.09V537.843H361.543V534.637C361.543 533.958 361.293 533.392 360.811 532.977C360.328 532.562 359.695 532.336 358.913 532.336C358.13 532.336 357.464 532.562 356.982 532.996C356.499 533.43 356.249 534.128 356.249 535.033C356.249 535.863 356.432 536.674 356.798 537.447C357.165 538.221 357.631 538.938 358.197 539.579C358.763 540.22 359.529 541.069 360.494 542.088C361.693 543.295 362.675 544.351 363.424 545.275C364.173 546.2 364.806 547.275 365.339 548.482C365.871 549.689 366.138 551.029 366.138 552.462C366.138 554.028 365.838 555.405 365.222 556.574C364.606 557.744 363.757 558.649 362.642 559.272C361.543 559.894 360.278 560.215 358.879 560.215C357.481 560.215 356.249 559.913 355.15 559.29V559.328Z" fill="black"></path><path d="M428.172 528.322H433.666L439.193 549.166H439.509L439.376 528.322H443.704V559.672H438.21L432.683 538.829H432.367L432.5 559.672H428.172V528.322Z" fill="black"></path><path d="M456.084 528.322H467.887V532.793H460.595V541.413H467.887V545.846H460.595V555.221H467.887V559.691H456.084V528.341V528.322Z" fill="black"></path><path d="M478.314 528.322H482.676L484.79 553.485H485.073L487.454 528.322H492.581L494.995 553.485H495.278L497.393 528.322H501.721L498.808 559.672H492.481L490.201 534.698H489.884L487.604 559.672H481.278L478.331 528.322H478.314Z" fill="black"></path><path d="M533.921 548.168L528.244 528.343H533.055L536.068 542.169H536.268L539.315 528.343H544.126L538.416 548.168V559.693H533.921V548.168Z" fill="black"></path><path d="M557.735 559.196C556.553 558.499 555.637 557.499 554.988 556.235C554.322 554.971 554.006 553.519 554.006 551.897V536.146C554.006 534.524 554.339 533.09 554.988 531.808C555.637 530.544 556.57 529.544 557.735 528.846C558.917 528.148 560.249 527.79 561.747 527.79C563.245 527.79 564.577 528.148 565.742 528.846C566.908 529.544 567.823 530.544 568.473 531.808C569.122 533.072 569.455 534.524 569.455 536.146V551.897C569.455 553.519 569.122 554.952 568.473 556.235C567.807 557.499 566.908 558.48 565.742 559.196C564.577 559.894 563.245 560.253 561.747 560.253C560.249 560.253 558.917 559.894 557.735 559.196ZM559.433 554.707C560.032 555.348 560.798 555.669 561.747 555.669C562.696 555.669 563.428 555.348 564.028 554.707C564.627 554.066 564.927 553.255 564.927 552.255V535.788C564.927 534.788 564.627 533.977 564.028 533.336C563.428 532.694 562.663 532.374 561.747 532.374C560.831 532.374 560.032 532.694 559.433 533.336C558.834 533.977 558.534 534.788 558.534 535.788V552.255C558.534 553.255 558.834 554.066 559.433 554.707Z" fill="black"></path><path d="M581.322 528.323H589.446C591.294 528.323 592.776 528.964 593.924 530.247C595.073 531.53 595.639 533.208 595.639 535.264V538.943C595.639 540.244 595.373 541.414 594.823 542.413C594.274 543.413 593.525 544.186 592.559 544.696V544.922C593.525 545.412 594.291 546.148 594.823 547.129C595.373 548.11 595.639 549.26 595.639 550.562V559.654H591.144V549.298C591.144 548.638 590.978 548.11 590.628 547.695C590.279 547.28 589.829 547.072 589.28 547.072H585.817V559.654H581.322V528.304V528.323ZM589.246 542.602C589.796 542.602 590.262 542.394 590.612 541.961C590.961 541.527 591.144 540.98 591.144 540.338V535.132C591.144 534.472 590.961 533.944 590.612 533.529C590.262 533.114 589.796 532.906 589.246 532.906H585.817V542.621H589.246V542.602Z" fill="black"></path><path d="M607.596 528.322H612.091V541.734H612.374L617.634 528.322H622.712L616.319 543.997L622.712 559.672H617.634L612.374 546.185H612.091V559.672H607.596V528.322Z" fill="black"></path><path d="M686.953 559.328C685.838 558.706 684.989 557.857 684.356 556.763C683.723 555.669 683.424 554.405 683.424 552.99V549.501H687.919V553.386C687.919 554.047 688.168 554.594 688.684 555.028C689.201 555.461 689.85 555.688 690.649 555.688C691.448 555.688 692.147 555.442 692.68 554.971C693.196 554.48 693.462 553.783 693.462 552.839C693.462 551.67 693.113 550.557 692.43 549.52C691.731 548.482 690.666 547.199 689.217 545.653C688.002 544.37 687.02 543.257 686.271 542.295C685.521 541.333 684.905 540.258 684.373 539.013C683.84 537.787 683.574 536.448 683.574 535.014C683.574 532.769 684.223 530.996 685.521 529.695C686.82 528.393 688.518 527.752 690.616 527.752C692.031 527.752 693.262 528.054 694.328 528.676C695.393 529.299 696.226 530.147 696.825 531.26C697.424 532.373 697.707 533.637 697.707 535.09V537.843H693.346V534.637C693.346 533.958 693.096 533.392 692.613 532.977C692.13 532.562 691.498 532.336 690.715 532.336C689.933 532.336 689.267 532.562 688.784 532.996C688.302 533.43 688.052 534.128 688.052 535.033C688.052 535.863 688.235 536.674 688.601 537.447C688.967 538.221 689.434 538.938 690 539.579C690.566 540.22 691.331 541.069 692.297 542.088C693.496 543.295 694.478 544.351 695.227 545.275C695.976 546.2 696.609 547.275 697.141 548.482C697.674 549.689 697.94 551.029 697.94 552.462C697.94 554.028 697.641 555.405 697.025 556.574C696.409 557.744 695.56 558.649 694.444 559.272C693.346 559.894 692.081 560.215 690.682 560.215C689.284 560.215 688.052 559.913 686.953 559.29V559.328Z" fill="black"></path><path d="M712.724 528.322H719.433L724.244 559.672H719.65L718.684 552.108H713.523L712.524 559.672H707.93L712.741 528.322H712.724ZM718.051 547.619L716.187 532.963H715.987L714.123 547.619H718.068H718.051Z" fill="black"></path><path d="M735.312 528.322H740.806L746.333 549.166H746.649L746.516 528.322H750.845V559.672H745.351L739.824 538.829H739.508L739.641 559.672H735.312V528.322Z" fill="black"></path><path d="M780.092 528.322H791.862V532.906H784.603V542.62H791.862V547.204H784.603V559.672H780.108V528.322H780.092Z" fill="black"></path><path d="M803.221 528.323H811.345C813.193 528.323 814.674 528.964 815.823 530.247C816.972 531.53 817.538 533.208 817.538 535.264V538.943C817.538 540.244 817.271 541.414 816.722 542.413C816.172 543.413 815.423 544.186 814.458 544.696V544.922C815.423 545.412 816.189 546.148 816.722 547.129C817.271 548.11 817.538 549.26 817.538 550.562V559.654H813.043V549.298C813.043 548.638 812.876 548.11 812.527 547.695C812.177 547.28 811.728 547.072 811.178 547.072H807.716V559.654H803.221V528.304V528.323ZM811.145 542.602C811.694 542.602 812.16 542.394 812.51 541.961C812.86 541.527 813.043 540.98 813.043 540.338V535.132C813.043 534.472 812.86 533.944 812.51 533.529C812.16 533.114 811.694 532.906 811.145 532.906H807.716V542.621H811.145V542.602Z" fill="black"></path><path d="M832.996 528.322H839.705L844.516 559.672H839.921L838.955 552.108H833.795L832.796 559.672H828.201L833.012 528.322H832.996ZM838.323 547.619L836.458 532.963H836.259L834.394 547.619H838.34H838.323Z" fill="black"></path><path d="M855.592 528.322H861.085L866.612 549.166H866.929L866.796 528.322H871.124V559.672H865.63L860.103 538.829H859.787L859.92 559.672H855.592V528.322Z" fill="black"></path><path d="M886.723 559.2C885.541 558.502 884.626 557.502 883.976 556.238C883.31 554.975 882.994 553.522 882.994 551.9V536.15C882.994 534.527 883.327 533.094 883.976 531.811C884.626 530.547 885.558 529.548 886.723 528.85C887.905 528.152 889.237 527.793 890.735 527.793C892.233 527.793 893.532 528.133 894.681 528.793C895.829 529.453 896.728 530.396 897.378 531.585C898.027 532.773 898.343 534.131 898.343 535.64V541.488H893.815V535.263C893.815 534.433 893.532 533.735 892.949 533.207C892.367 532.679 891.634 532.396 890.735 532.396C889.786 532.396 889.021 532.717 888.421 533.358C887.822 533.999 887.522 534.81 887.522 535.81V552.277C887.522 553.277 887.822 554.088 888.421 554.729C889.021 555.371 889.786 555.691 890.735 555.691C891.684 555.691 892.367 555.427 892.949 554.88C893.532 554.352 893.815 553.654 893.815 552.824V546.6H898.343V552.447C898.343 553.956 898.027 555.314 897.378 556.503C896.728 557.691 895.829 558.615 894.681 559.294C893.532 559.954 892.217 560.294 890.735 560.294C889.254 560.294 887.905 559.936 886.723 559.238V559.2Z" fill="black"></path><path d="M910.246 528.322H914.741V559.672H910.246V528.322Z" fill="black"></path><path d="M929.783 559.328C928.668 558.706 927.819 557.857 927.186 556.763C926.554 555.669 926.254 554.405 926.254 552.99V549.501H930.749V553.386C930.749 554.047 930.998 554.594 931.514 555.028C932.031 555.461 932.68 555.688 933.479 555.688C934.278 555.688 934.977 555.442 935.51 554.971C936.026 554.48 936.292 553.783 936.292 552.839C936.292 551.67 935.943 550.557 935.26 549.52C934.561 548.482 933.496 547.199 932.047 545.653C930.832 544.37 929.85 543.257 929.101 542.295C928.351 541.333 927.736 540.258 927.203 539.013C926.67 537.787 926.404 536.448 926.404 535.014C926.404 532.769 927.053 530.996 928.352 529.695C929.65 528.393 931.348 527.752 933.446 527.752C934.861 527.752 936.093 528.054 937.158 528.676C938.223 529.299 939.056 530.147 939.655 531.26C940.254 532.373 940.537 533.637 940.537 535.09V537.843H936.176V534.637C936.176 533.958 935.926 533.392 935.443 532.977C934.96 532.562 934.328 532.336 933.546 532.336C932.763 532.336 932.097 532.562 931.614 532.996C931.132 533.43 930.882 534.128 930.882 535.033C930.882 535.863 931.065 536.674 931.431 537.447C931.798 538.221 932.264 538.938 932.83 539.579C933.396 540.22 934.161 541.069 935.127 542.088C936.326 543.295 937.308 544.351 938.057 545.275C938.806 546.2 939.439 547.275 939.971 548.482C940.504 549.689 940.77 551.029 940.77 552.462C940.77 554.028 940.471 555.405 939.855 556.574C939.239 557.744 938.39 558.649 937.275 559.272C936.176 559.894 934.911 560.215 933.512 560.215C932.114 560.215 930.882 559.913 929.783 559.29V559.328Z" fill="black"></path><path d="M955.51 559.2C954.328 558.502 953.413 557.502 952.763 556.238C952.098 554.975 951.781 553.522 951.781 551.9V536.15C951.781 534.527 952.114 533.094 952.763 531.811C953.413 530.547 954.345 529.548 955.51 528.85C956.692 528.152 958.024 527.793 959.522 527.793C961.021 527.793 962.319 528.133 963.468 528.793C964.617 529.453 965.515 530.396 966.165 531.585C966.814 532.773 967.13 534.131 967.13 535.64V541.488H962.602V535.263C962.602 534.433 962.319 533.735 961.737 533.207C961.154 532.679 960.421 532.396 959.522 532.396C958.573 532.396 957.808 532.717 957.208 533.358C956.609 533.999 956.309 534.81 956.309 535.81V552.277C956.309 553.277 956.609 554.088 957.208 554.729C957.808 555.371 958.573 555.691 959.522 555.691C960.471 555.691 961.154 555.427 961.737 554.88C962.319 554.352 962.602 553.654 962.602 552.824V546.6H967.13V552.447C967.13 553.956 966.814 555.314 966.165 556.503C965.515 557.691 964.617 558.615 963.468 559.294C962.319 559.954 961.004 560.294 959.522 560.294C958.041 560.294 956.692 559.936 955.51 559.238V559.2Z" fill="black"></path><path d="M982.278 559.2C981.096 558.502 980.18 557.502 979.531 556.238C978.865 554.975 978.549 553.522 978.549 551.9V536.15C978.549 534.527 978.882 533.094 979.531 531.811C980.18 530.547 981.113 529.548 982.278 528.85C983.46 528.152 984.792 527.793 986.29 527.793C987.788 527.793 989.12 528.152 990.285 528.85C991.451 529.548 992.366 530.547 993.016 531.811C993.665 533.075 993.998 534.527 993.998 536.15V551.9C993.998 553.522 993.665 554.956 993.016 556.238C992.35 557.502 991.451 558.483 990.285 559.2C989.12 559.898 987.788 560.256 986.29 560.256C984.792 560.256 983.46 559.898 982.278 559.2ZM983.976 554.711C984.575 555.352 985.341 555.673 986.29 555.673C987.239 555.673 987.971 555.352 988.571 554.711C989.17 554.069 989.47 553.258 989.47 552.258V535.791C989.47 534.792 989.17 533.98 988.571 533.339C987.971 532.698 987.206 532.377 986.29 532.377C985.374 532.377 984.575 532.698 983.976 533.339C983.377 533.98 983.077 534.792 983.077 535.791V552.258C983.077 553.258 983.377 554.069 983.976 554.711Z" fill="black"></path><path d="M654.339 528.537H651.941V560.434H654.339V528.537Z" fill="black"></path><path d="M398.764 528.538H396.367V560.435H398.764V528.538Z" fill="black"></path><path d="M198.723 528.538H196.326V560.435H198.723V528.538Z" fill="black"></path></svg>